<?xml version="1.0" standalone="no"?><svg xmlns="http://www.w3.org/2000/svg" viewBox="0 0 1440 320"><path fill="#273036" fill-opacity="1" d="M0,128L26.7,144C53.3,160,107,192,160,181.3C213.3,171,267,117,320,96C373.3,75,427,85,480,96C533.3,107,587,117,640,138.7C693.3,160,747,192,800,202.7C853.3,213,907,203,960,208C1013.3,213,1067,235,1120,202.7C1173.3,171,1227,85,1280,74.7C1333.3,64,1387,128,1413,160L1440,192L1440,320L1413.3,320C1386.7,320,1333,320,1280,320C1226.7,320,1173,320,1120,320C1066.7,320,1013,320,960,320C906.7,320,853,320,800,320C746.7,320,693,320,640,320C586.7,320,533,320,480,320C426.7,320,373,320,320,320C266.7,320,213,320,160,320C106.7,320,53,320,27,320L0,320Z"></path></svg>