<?xml version="1.0" standalone="no"?><svg xmlns="http://www.w3.org/2000/svg" viewBox="0 0 1440 320"><path fill="#414852" fill-opacity="1" d="M0,224L40,197.3C80,171,160,117,240,128C320,139,400,213,480,250.7C560,288,640,288,720,266.7C800,245,880,203,960,202.7C1040,203,1120,245,1200,245.3C1280,245,1360,203,1400,181.3L1440,160L1440,320L1400,320C1360,320,1280,320,1200,320C1120,320,1040,320,960,320C880,320,800,320,720,320C640,320,560,320,480,320C400,320,320,320,240,320C160,320,80,320,40,320L0,320Z"></path></svg>